<?xml version="1.0" encoding="UTF-8"?><svg id="Calque_2" xmlns="http://www.w3.org/2000/svg" viewBox="0 0 509.2607 372.0576"><g id="Components"><g id="_3cf038ea-ad97-4423-ae07-0e34a891c8cf_5"><circle cx="254.6304" cy="319.5622" r="52.4954" style="fill:#fff; stroke-width:0px;"/><path d="M484.0696,289.2286c-17.5315,0-33.2668-10.7573-39.6306-27.093l-47.2769-121.3578c-10.8589-27.8743,9.7012-57.9489,39.6158-57.9489h9.7123V0h-108.3823c-15.4185,0-29.6282,8.349-37.1331,21.8177l-46.3445,83.1732-46.3247-83.1675c-7.504-13.4719-21.7155-21.8234-37.1362-21.8234H62.7705v82.829h9.7112c29.9148,0,50.4749,30.0749,39.6157,57.9492l-47.2783,121.3578c-6.364,16.3354-22.0991,27.0925-39.6305,27.0925H0v82.8289h165.0962s-34.3246-11.9523-33.9546-44.4918c.2522-22.1656,17.563-40.3151,39.5872-42.8267,27.5972-3.1472,44.5046-19.1184,41.3263-44.5927-2.8911-23.1728-23.0786-36.0557-39.1371-47.6642-14.912-10.7797-27.9185-27.0687-29.7958-47.6887-2.3619-25.9431,17.5106-48.8856,43.561-48.839,24.0985.0431,43.6195,18.0124,43.6195,39.811,0,22.172-20.2593,22.7944-22.729,46.7912-2.6606,25.8521,21.068,47.0567,47.0566,47.0567s49.7173-21.2046,47.0566-47.0567c-2.4697-23.9968-22.729-24.6192-22.729-46.7912,0-21.7986,19.521-39.7679,43.6195-39.811,26.0504-.0466,45.923,22.8959,43.561,48.839-1.8773,20.62-14.8838,36.9089-29.7958,47.6887-16.0585,11.6085-36.246,24.4915-39.1371,47.6642-3.1783,25.4743,13.7291,41.4455,41.3263,44.5927,22.0242,2.5117,39.335,20.6611,39.5872,42.8267.37,32.5395-33.9546,44.4918-33.9546,44.4918h165.0962v-82.8289h-25.1912Z" style="fill:#fff; stroke-width:0px;"/></g></g></svg>