<?xml version="1.0" encoding="UTF-8"?><svg id="Calque_2" xmlns="http://www.w3.org/2000/svg" viewBox="0 0 1683.3555 216.6526"><g id="Components"><g id="_0f634b28-793c-46d0-ae6a-3fc3f18939f6_5"><path d="M0,5.416h131.4171l43.0456,137.9745h.5701L216.6526,5.416h131.9872v205.8201h-80.3902V56.4435h-.5701l-56.4435,154.7925h-83.8096L74.4035,56.4435h-.8558v154.7925H0V5.416Z" style="fill:#fff; stroke-width:0px;"/><path d="M628.0106,181.0195c-22.2351,21.3794-57.8682,35.6331-110.8911,35.6331-100.6293,0-137.6882-46.7518-137.6882-108.3263,0-39.91,15.964-68.7019,39.6238-85.5211,19.6703-13.9681,45.0415-22.8052,98.0645-22.8052,100.6293,0,137.6882,46.7512,137.6882,108.3263,0,31.6424-9.6929,56.4435-26.7971,72.6932ZM517.1195,46.7512c-28.5074,0-49.3167,19.3846-49.3167,61.575s20.8093,61.5744,49.3167,61.5744,49.3167-19.3846,49.3167-61.5744-20.8105-61.575-49.3167-61.575Z" style="fill:#fff; stroke-width:0px;"/><path d="M736.3442,55.5884h-67.5611V5.416h221.7835v50.1724h-67.5611v155.6476h-86.6613V55.5884Z" style="fill:#fff; stroke-width:0px;"/><path d="M921.358,5.416h86.6613v76.1138h85.8055V5.416h86.6613v205.8201h-86.6613v-79.5344h-85.8055v79.5344h-86.6613V5.416Z" style="fill:#fff; stroke-width:0px;"/><path d="M1211.2775,5.416h197.2679v43.3306h-113.4584v37.9141h106.3315v43.3306h-106.3315v37.9147h113.4584v43.33h-197.2679V5.416Z" style="fill:#fff; stroke-width:0px;"/><path d="M1439.3369,5.416h146.5254c56.1579,0,90.9364,11.1182,90.9364,56.7292,0,27.0816-18.8145,44.1852-44.4702,48.7466v2.8505c19.9547.5701,36.4888,7.697,39.9094,28.5068l11.1176,68.987h-86.6601l-7.1269-45.8961c-3.9919-25.3713-7.697-28.7919-37.3446-28.7919h-26.2258v74.688h-86.6613V5.416ZM1525.9982,96.638h33.067c18.5301,0,32.7838-5.701,32.7838-25.0856,0-18.2444-13.1135-24.5161-34.2084-24.5161h-31.6424v49.6017Z" style="fill:#fff; stroke-width:0px;"/></g></g></svg>